<svg width="24" height="25" viewBox="0 0 24 25" fill="none" xmlns="http://www.w3.org/2000/svg">
<path d="M16.19 2.5H7.81C4.17 2.5 2 4.67 2 8.31V16.68C2 20.33 4.17 22.5 7.81 22.5H16.18C19.82 22.5 21.99 20.33 21.99 16.69V8.31C22 4.67 19.83 2.5 16.19 2.5ZM9.91 16.69C9.91 17.33 9.39 17.85 8.74 17.85C8.1 17.85 7.58 17.33 7.58 16.69V13.43C7.58 12.79 8.1 12.27 8.74 12.27C9.39 12.27 9.91 12.79 9.91 13.43V16.69ZM16.42 16.69C16.42 17.33 15.9 17.85 15.26 17.85C14.61 17.85 14.09 17.33 14.09 16.69V8.31C14.09 7.67 14.61 7.15 15.26 7.15C15.9 7.15 16.42 7.67 16.42 8.31V16.69Z" fill="white"/>
</svg>
