<svg width="24" height="24" viewBox="0 0 24 24" fill="none" xmlns="http://www.w3.org/2000/svg">
<path d="M19.4792 2.81998L19.7592 3.38998C19.8992 3.66998 20.2492 3.92998 20.5592 3.98998L20.9392 4.04998C22.0792 4.23998 22.3492 5.07998 21.5292 5.90998L21.1792 6.25998C20.9492 6.49998 20.8192 6.95998 20.8892 7.27998L20.9392 7.48997C21.2492 8.86998 20.5192 9.39998 19.3192 8.67998L19.0592 8.52997C18.7492 8.34998 18.2492 8.34998 17.9392 8.52997L17.6792 8.67998C16.4692 9.40998 15.7392 8.86998 16.0592 7.48997L16.1092 7.27998C16.1792 6.95998 16.0492 6.49998 15.8192 6.25998L15.4692 5.89998C14.6492 5.06998 14.9192 4.22998 16.0592 4.03998L16.4392 3.97998C16.7392 3.92998 17.0992 3.65998 17.2392 3.37998L17.5192 2.80998C18.0592 1.72997 18.9392 1.72997 19.4792 2.81998Z" fill="#292D32"/>
<path d="M21.57 10.09C21.21 10.35 20.2 10.83 18.76 10.09C18.6 10.01 18.4 10 18.24 10.09C17.67 10.38 17.15 10.5 16.74 10.5C16.1 10.5 15.65 10.25 15.43 10.09C15.06 9.82 14.28 9.05 14.55 7.42C14.58 7.25 14.53 7.08 14.42 6.95C13.73 6.16 13.35 5.1 13.62 4.27C13.72 3.94 13.51 3.5 13.17 3.5H7C4 3.5 2 5 2 8.5V15.5C2 19 4 20.5 7 20.5H17C20 20.5 22 19 22 15.5V10.27C22 10.08 21.73 9.98 21.57 10.09ZM14.34 12.09C13.68 12.62 12.84 12.88 12 12.88C11.16 12.88 10.31 12.62 9.66 12.09L6.53 9.59C6.21 9.33 6.16 8.85 6.41 8.53C6.67 8.21 7.14 8.15 7.46 8.41L10.59 10.91C11.35 11.52 12.64 11.52 13.4 10.91C13.72 10.65 14.19 10.7 14.45 11.03C14.72 11.35 14.67 11.83 14.34 12.09Z" fill="#292D32"/>
</svg>
