<svg width="24" height="24" viewBox="0 0 24 24" fill="none" xmlns="http://www.w3.org/2000/svg">
<path d="M9.15039 7.48999C8.59039 7.48999 8.15039 7.93999 8.15039 8.48999C8.15039 9.03999 8.60039 9.48999 9.15039 9.48999C9.70039 9.48999 10.1504 9.03999 10.1504 8.48999C10.1504 7.93999 9.70039 7.48999 9.15039 7.48999Z" fill="#292D32"/>
<path d="M21.46 5.04C20.62 3.09 18.77 2 16.19 2H7.81C4.6 2 2 4.6 2 7.81V16.19C2 18.77 3.09 20.62 5.04 21.46C5.23 21.54 5.45 21.49 5.59 21.35L21.35 5.59C21.5 5.44 21.55 5.22 21.46 5.04ZM10.53 12.24C10.14 12.62 9.63 12.8 9.12 12.8C8.61 12.8 8.1 12.61 7.71 12.24C6.69 11.28 5.57 9.75 6 7.93C6.38 6.28 7.84 5.54 9.12 5.54C10.4 5.54 11.86 6.28 12.24 7.94C12.66 9.75 11.54 11.28 10.53 12.24Z" fill="#292D32"/>
<path d="M19.4709 20.53C19.6909 20.75 19.6609 21.11 19.3909 21.26C18.5109 21.75 17.4409 22 16.1909 22H7.81087C7.52087 22 7.40087 21.66 7.60087 21.46L13.6409 15.42C13.8409 15.22 14.1509 15.22 14.3509 15.42L19.4709 20.53Z" fill="#292D32"/>
<path d="M21.9998 7.81002V16.19C21.9998 17.44 21.7498 18.52 21.2598 19.39C21.1098 19.66 20.7498 19.68 20.5298 19.47L15.4098 14.35C15.2098 14.15 15.2098 13.84 15.4098 13.64L21.4498 7.60002C21.6598 7.40002 21.9998 7.52002 21.9998 7.81002Z" fill="#292D32"/>
</svg>
