<svg width="24" height="25" viewBox="0 0 24 25" fill="none" xmlns="http://www.w3.org/2000/svg">
<path d="M21.0169 8.49175C21.4148 9.05833 20.9405 9.75 20.2482 9.75H3C2.44772 9.75 2 9.30228 2 8.75V6.92C2 4.48 3.98 2.5 6.42 2.5H8.74C10.37 2.5 10.88 3.03 11.53 3.9L12.93 5.76C13.24 6.17 13.28 6.22 13.86 6.22H16.65C18.4546 6.22 20.0516 7.11709 21.0169 8.49175Z" fill="white"/>
<path d="M21.9834 12.2464C21.9815 11.6954 21.5343 11.2498 20.9834 11.2498L2.99998 11.2501C2.44771 11.2501 2 11.6978 2 12.2501V17.1501C2 20.1001 4.4 22.5001 7.35 22.5001H16.65C19.6 22.5001 22 20.1001 22 17.1501L21.9834 12.2464ZM14.5 17.2501H12.81V19.0001C12.81 19.4101 12.47 19.7501 12.06 19.7501C11.64 19.7501 11.31 19.4101 11.31 19.0001V17.2501H9.5C9.09 17.2501 8.75 16.9101 8.75 16.5001C8.75 16.0901 9.09 15.7501 9.5 15.7501H11.31V14.0001C11.31 13.5901 11.64 13.2501 12.06 13.2501C12.47 13.2501 12.81 13.5901 12.81 14.0001V15.7501H14.5C14.91 15.7501 15.25 16.0901 15.25 16.5001C15.25 16.9101 14.91 17.2501 14.5 17.2501Z" fill="white"/>
</svg>
