<svg width="24" height="25" viewBox="0 0 24 25" fill="none" xmlns="http://www.w3.org/2000/svg">
<path d="M18.6899 12.0298C18.1199 11.8798 17.4499 11.7998 16.6499 11.7998C15.5399 11.7998 15.1299 12.0698 14.5599 12.4998C14.5299 12.5198 14.4999 12.5498 14.4699 12.5798L13.5199 13.5898C12.7199 14.4298 11.2799 14.4398 10.4799 13.5798L9.52993 12.5798C9.49993 12.5498 9.46993 12.5198 9.43993 12.4998C8.86993 12.0698 8.45993 11.7998 7.34993 11.7998C6.54993 11.7998 5.87993 11.8798 5.30993 12.0298C2.92993 12.6698 2.92993 14.5598 2.92993 16.2198V17.1498C2.92993 19.6598 2.92993 22.4998 8.27993 22.4998H15.7199C19.2699 22.4998 21.0699 20.6998 21.0699 17.1498V16.2198C21.0699 14.5598 21.0699 12.6698 18.6899 12.0298ZM14.3299 18.8998H9.66993C9.28993 18.8998 8.97993 18.5898 8.97993 18.1998C8.97993 17.8098 9.28993 17.4998 9.66993 17.4998H14.3299C14.7099 17.4998 15.0199 17.8098 15.0199 18.1998C15.0199 18.5898 14.7099 18.8998 14.3299 18.8998Z" fill="white"/>
<path d="M12.6701 3.17C12.6701 2.8 12.3701 2.5 12.0001 2.5C11.6301 2.5 11.3301 2.8 11.3301 3.17V4.5H12.6801V3.17H12.6701Z" fill="white"/>
<path d="M19.21 8.92V10.62C19.17 10.6 19.12 10.59 19.08 10.58H19.07C18.36 10.39 17.57 10.3 16.65 10.3C15.11 10.3 14.38 10.75 13.72 11.25C13.58 11.35 13.48 11.45 13.38 11.55L12.43 12.56C12.33 12.66 12.17 12.72 12 12.72C11.92 12.72 11.72 12.71 11.57 12.55L10.59 11.52C10.49 11.41 10.37 11.32 10.34 11.3C9.62004 10.75 8.89004 10.3 7.35004 10.3C6.43004 10.3 5.64004 10.39 4.92004 10.58C4.88004 10.59 4.83004 10.6 4.79004 10.62V8.92C4.79004 6.85 4.79004 4.5 9.21004 4.5H11.33V7.95L10.68 7.3C10.41 7.03 9.99004 7.03 9.72004 7.3C9.46004 7.56 9.46004 7.99 9.72004 8.25L11.52 10.05C11.53 10.06 11.54 10.06 11.54 10.07C11.6 10.12 11.67 10.17 11.74 10.2C11.83 10.23 11.91 10.25 12 10.25C12.09 10.25 12.17 10.23 12.26 10.2C12.34 10.17 12.41 10.12 12.48 10.05L14.28 8.25C14.54 7.99 14.54 7.56 14.28 7.3C14.01 7.03 13.59 7.03 13.32 7.3L12.67 7.95V4.5H14.79C19.21 4.5 19.21 6.85 19.21 8.92Z" fill="white"/>
</svg>
