<svg width="24" height="25" viewBox="0 0 24 25" fill="none" xmlns="http://www.w3.org/2000/svg">
<path d="M15.5801 20.1995C13.4701 20.3495 13.4701 23.4095 15.5801 23.5595H20.5901C21.2001 23.5595 21.7801 23.3395 22.2301 22.9295C23.7101 21.6395 22.9201 19.0395 20.9701 18.7995C20.2701 14.5795 14.1601 16.1795 15.6101 20.1995" fill="white"/>
<path d="M15.5801 20.1995C13.4701 20.3495 13.4701 23.4095 15.5801 23.5595H20.5901C21.2001 23.5595 21.7801 23.3395 22.2301 22.9295C23.7101 21.6395 22.9201 19.0395 20.9701 18.7995C20.2701 14.5795 14.1601 16.1795 15.6101 20.1995" fill="white"/>
<path d="M22 11.57V15.84C22 16.16 21.49 16.3 21.27 16.07C20.8 15.58 20.21 15.21 19.53 15C17.96 14.51 16.15 14.99 15.01 16.17C14.29 16.94 13.9 17.9 13.88 18.94C13.88 19.12 13.79 19.28 13.65 19.39C12.93 19.96 12.49 20.85 12.49 21.87V21.88C12.49 22.2 12.26 22.49 11.94 22.49H7.34C4.4 22.5 2 20.1 2 17.15V6.92C2 4.48 3.98 2.5 6.42 2.5H8.74C10.37 2.5 10.88 3.03 11.53 3.9L12.93 5.76C13.24 6.17 13.28 6.22 13.86 6.22H16.65C19.03 6.22 21.05 7.78 21.74 9.94C21.89 10.39 21.97 10.85 21.99 11.34C22 11.41 22 11.5 22 11.57Z" fill="white"/>
</svg>
