<svg width="24" height="25" viewBox="0 0 24 25" fill="none" xmlns="http://www.w3.org/2000/svg">
<path d="M17.39 16.17L13.35 12.5H10.64L6.59998 16.17C5.46998 17.19 5.09998 18.76 5.64998 20.18C6.19998 21.59 7.53998 22.5 9.04998 22.5H14.94C16.46 22.5 17.79 21.59 18.34 20.18C18.89 18.76 18.52 17.19 17.39 16.17ZM13.82 18.64H10.18C9.79998 18.64 9.49998 18.33 9.49998 17.96C9.49998 17.59 9.80998 17.28 10.18 17.28H13.82C14.2 17.28 14.5 17.59 14.5 17.96C14.5 18.33 14.19 18.64 13.82 18.64Z" fill="white"/>
<path d="M18.3499 4.82C17.7999 3.41 16.4599 2.5 14.9499 2.5H9.04992C7.53992 2.5 6.19992 3.41 5.64992 4.82C5.10992 6.24 5.47992 7.81 6.60992 8.83L10.6499 12.5H13.3599L17.3999 8.83C18.5199 7.81 18.8899 6.24 18.3499 4.82ZM13.8199 7.73H10.1799C9.79992 7.73 9.49992 7.42 9.49992 7.05C9.49992 6.68 9.80992 6.37 10.1799 6.37H13.8199C14.1999 6.37 14.4999 6.68 14.4999 7.05C14.4999 7.42 14.1899 7.73 13.8199 7.73Z" fill="white"/>
</svg>
