<svg width="23" height="23" viewBox="0 0 23 23" fill="none" xmlns="http://www.w3.org/2000/svg">
<path d="M11.4999 13.8C12.7702 13.8 13.7999 12.7703 13.7999 11.5C13.7999 10.2298 12.7702 9.20001 11.4999 9.20001C10.2297 9.20001 9.19992 10.2298 9.19992 11.5C9.19992 12.7703 10.2297 13.8 11.4999 13.8Z" fill="white"/>
<path fill-rule="evenodd" clip-rule="evenodd" d="M0.526367 11.5001C1.99175 6.83436 6.35059 3.45001 11.4999 3.45001C16.6491 3.45001 21.0079 6.83432 22.4734 11.5C21.008 16.1657 16.6491 19.55 11.4998 19.55C6.35059 19.55 1.99178 16.1657 0.526367 11.5001ZM16.0999 11.5C16.0999 14.0405 14.0404 16.1 11.4999 16.1C8.95941 16.1 6.89993 14.0405 6.89993 11.5C6.89993 8.9595 8.95941 6.90001 11.4999 6.90001C14.0404 6.90001 16.0999 8.9595 16.0999 11.5Z" fill="white"/>
</svg>
