<svg width="211" height="40" viewBox="0 0 211 40" fill="none" xmlns="http://www.w3.org/2000/svg">
<rect width="40" height="40" rx="8" fill="#017EFA"/>
<path d="M20 10C14.486 10 10 14.486 10 20C10 25.514 14.486 30 20 30C25.514 30 30 25.514 30 20C30 14.486 25.514 10 20 10ZM20 28C15.589 28 12 24.411 12 20C12 15.589 15.589 12 20 12C24.411 12 28 15.589 28 20C28 24.411 24.411 28 20 28Z" fill="white"/>
<path d="M21 14L15 21H19V26L25 19H21V14Z" fill="white"/>
<path d="M60.4805 23.2656V29.5H55.8516V12.3672H61.4648C66.1211 12.3672 68.4492 14.0547 68.4492 17.4297C68.4492 19.4141 67.4805 20.9492 65.543 22.0352L70.5352 29.5H65.2852L61.6523 23.2656H60.4805ZM60.4805 19.7852H61.3477C62.9648 19.7852 63.7734 19.0703 63.7734 17.6406C63.7734 16.4609 62.9805 15.8711 61.3945 15.8711H60.4805V19.7852ZM78.2344 29.7344C76.0234 29.7344 74.3047 29.1484 73.0781 27.9766C71.8594 26.7969 71.25 25.1211 71.25 22.9492C71.25 20.707 71.8164 18.9883 72.9492 17.793C74.082 16.5898 75.6992 15.9883 77.8008 15.9883C79.8008 15.9883 81.3438 16.5117 82.4297 17.5586C83.5234 18.5977 84.0703 20.0977 84.0703 22.0586V24.0977H75.8789C75.9102 24.8398 76.1797 25.4219 76.6875 25.8438C77.2031 26.2656 77.9023 26.4766 78.7852 26.4766C79.5898 26.4766 80.3281 26.4023 81 26.2539C81.6797 26.0977 82.4141 25.8359 83.2031 25.4688V28.7617C82.4844 29.1289 81.7422 29.3828 80.9766 29.5234C80.2109 29.6641 79.2969 29.7344 78.2344 29.7344ZM77.9648 19.1055C77.4258 19.1055 76.9727 19.2773 76.6055 19.6211C76.2461 19.957 76.0352 20.4883 75.9727 21.2148H79.9102C79.8945 20.5742 79.7109 20.0625 79.3594 19.6797C79.0156 19.2969 78.5508 19.1055 77.9648 19.1055ZM92.707 29.7344C90.5352 29.7344 88.8867 29.1484 87.7617 27.9766C86.6445 26.8047 86.0859 25.1211 86.0859 22.9258C86.0859 20.7227 86.6914 19.0156 87.9023 17.8047C89.1133 16.5938 90.8359 15.9883 93.0703 15.9883C94.6094 15.9883 96.0586 16.3242 97.418 16.9961L96.0703 20.3828C95.5156 20.1406 95.0039 19.9492 94.5352 19.8086C94.0664 19.6602 93.5781 19.5859 93.0703 19.5859C92.3281 19.5859 91.7539 19.875 91.3477 20.4531C90.9414 21.0312 90.7383 21.8477 90.7383 22.9023C90.7383 25.0273 91.5234 26.0898 93.0938 26.0898C94.4375 26.0898 95.7266 25.6992 96.9609 24.918V28.5625C95.7812 29.3438 94.3633 29.7344 92.707 29.7344ZM107.613 15.9883C108.012 15.9883 108.391 16.0195 108.75 16.082L109.008 16.1289L108.598 20.4531C108.223 20.3594 107.703 20.3125 107.039 20.3125C106.039 20.3125 105.312 20.543 104.859 21.0039C104.406 21.457 104.18 22.1133 104.18 22.9727V29.5H99.5977V16.2227H103.008L103.723 18.3438H103.945C104.328 17.6406 104.859 17.0742 105.539 16.6445C106.227 16.207 106.918 15.9883 107.613 15.9883ZM120.328 29.5L119.754 27.8477H119.484C119.102 28.457 118.566 28.9258 117.879 29.2539C117.199 29.5742 116.398 29.7344 115.477 29.7344C114.016 29.7344 112.879 29.3125 112.066 28.4688C111.254 27.6172 110.848 26.418 110.848 24.8711V16.2227H115.43V23.4766C115.43 24.3438 115.551 25 115.793 25.4453C116.043 25.8906 116.449 26.1133 117.012 26.1133C117.801 26.1133 118.363 25.8047 118.699 25.1875C119.035 24.5625 119.203 23.5117 119.203 22.0352V16.2227H123.785V29.5H120.328ZM131.555 29.5H126.973V16.2227H131.555V29.5ZM126.855 12.918C126.855 12.2305 127.047 11.7188 127.43 11.3828C127.812 11.0469 128.43 10.8789 129.281 10.8789C130.133 10.8789 130.754 11.0508 131.145 11.3945C131.535 11.7383 131.73 12.2461 131.73 12.918C131.73 14.2617 130.914 14.9336 129.281 14.9336C127.664 14.9336 126.855 14.2617 126.855 12.918ZM141.258 26.1133C141.875 26.1133 142.613 25.9609 143.473 25.6562V28.9961C142.855 29.2617 142.266 29.4492 141.703 29.5586C141.148 29.6758 140.496 29.7344 139.746 29.7344C138.207 29.7344 137.098 29.3594 136.418 28.6094C135.738 27.8516 135.398 26.6914 135.398 25.1289V19.6562H133.793V17.793L135.832 16.3516L137.016 13.5625H140.016V16.2227H143.273V19.6562H140.016V24.8242C140.016 25.6836 140.43 26.1133 141.258 26.1133ZM162.094 29.5V22.2812C162.094 21.3828 161.969 20.7109 161.719 20.2656C161.477 19.8125 161.09 19.5859 160.559 19.5859C159.855 19.5859 159.34 19.8867 159.012 20.4883C158.684 21.0898 158.52 22.0312 158.52 23.3125V29.5H153.926V22.2812C153.926 21.3828 153.809 20.7109 153.574 20.2656C153.34 19.8125 152.961 19.5859 152.438 19.5859C151.719 19.5859 151.195 19.9062 150.867 20.5469C150.539 21.1875 150.375 22.2344 150.375 23.6875V29.5H145.793V16.2227H149.25L149.824 17.8633H150.094C150.445 17.2539 150.953 16.7891 151.617 16.4688C152.289 16.1484 153.051 15.9883 153.902 15.9883C155.816 15.9883 157.16 16.5703 157.934 17.7344H158.297C158.672 17.1875 159.191 16.7617 159.855 16.457C160.527 16.1445 161.266 15.9883 162.07 15.9883C163.641 15.9883 164.801 16.3906 165.551 17.1953C166.301 18 166.676 19.2227 166.676 20.8633V29.5H162.094ZM176.203 29.7344C173.992 29.7344 172.273 29.1484 171.047 27.9766C169.828 26.7969 169.219 25.1211 169.219 22.9492C169.219 20.707 169.785 18.9883 170.918 17.793C172.051 16.5898 173.668 15.9883 175.77 15.9883C177.77 15.9883 179.312 16.5117 180.398 17.5586C181.492 18.5977 182.039 20.0977 182.039 22.0586V24.0977H173.848C173.879 24.8398 174.148 25.4219 174.656 25.8438C175.172 26.2656 175.871 26.4766 176.754 26.4766C177.559 26.4766 178.297 26.4023 178.969 26.2539C179.648 26.0977 180.383 25.8359 181.172 25.4688V28.7617C180.453 29.1289 179.711 29.3828 178.945 29.5234C178.18 29.6641 177.266 29.7344 176.203 29.7344ZM175.934 19.1055C175.395 19.1055 174.941 19.2773 174.574 19.6211C174.215 19.957 174.004 20.4883 173.941 21.2148H177.879C177.863 20.5742 177.68 20.0625 177.328 19.6797C176.984 19.2969 176.52 19.1055 175.934 19.1055ZM193.008 29.5V22.2578C193.008 21.375 192.879 20.7109 192.621 20.2656C192.371 19.8125 191.965 19.5859 191.402 19.5859C190.629 19.5859 190.07 19.8945 189.727 20.5117C189.383 21.1289 189.211 22.1875 189.211 23.6875V29.5H184.629V16.2227H188.086L188.66 17.8633H188.93C189.32 17.2383 189.859 16.7695 190.547 16.457C191.242 16.1445 192.039 15.9883 192.938 15.9883C194.406 15.9883 195.547 16.4141 196.359 17.2656C197.18 18.1172 197.59 19.3164 197.59 20.8633V29.5H193.008ZM207.211 26.1133C207.828 26.1133 208.566 25.9609 209.426 25.6562V28.9961C208.809 29.2617 208.219 29.4492 207.656 29.5586C207.102 29.6758 206.449 29.7344 205.699 29.7344C204.16 29.7344 203.051 29.3594 202.371 28.6094C201.691 27.8516 201.352 26.6914 201.352 25.1289V19.6562H199.746V17.793L201.785 16.3516L202.969 13.5625H205.969V16.2227H209.227V19.6562H205.969V24.8242C205.969 25.6836 206.383 26.1133 207.211 26.1133Z" fill="white"/>
</svg>
