<svg width="72" height="72" viewBox="0 0 72 72" fill="none" xmlns="http://www.w3.org/2000/svg">
<rect width="72" height="72" rx="8" fill="#017EFA"/>
<path d="M36 18C26.0748 18 18 26.0748 18 36C18 45.9252 26.0748 54 36 54C45.9252 54 54 45.9252 54 36C54 26.0748 45.9252 18 36 18ZM36 50.4C28.0602 50.4 21.6 43.9398 21.6 36C21.6 28.0602 28.0602 21.6 36 21.6C43.9398 21.6 50.4 28.0602 50.4 36C50.4 43.9398 43.9398 50.4 36 50.4Z" fill="white"/>
<path d="M37.8 25.2L27 37.8H34.2V46.8L45 34.2H37.8V25.2Z" fill="white"/>
</svg>
